Coordinates
version=1
nRows=29
nColumns=24
inDegrees=yes

Units are S.I. units (second, meters, Newtons, ...)
If the header above contains a line with 'inDegrees', this indicates whether rotational values are in degrees (yes) or radians (no).

endheader
time	pelvis_tilt	pelvis_list	pelvis_rotation	pelvis_tx	pelvis_ty	pelvis_tz	hip_flexion_r	hip_adduction_r	hip_rotation_r	knee_angle_r	ankle_angle_r	subtalar_angle_r	mtp_angle_r	hip_flexion_l	hip_adduction_l	hip_rotation_l	knee_angle_l	ankle_angle_l	subtalar_angle_l	mtp_angle_l	lumbar_extension	lumbar_bending	lumbar_rotation
      2.16000000	     11.82055444	     -0.12085304	     -3.09101576	      0.46066323	      0.97409085	     -0.03213607	    -21.97145008	     -3.39231325	     -1.47969832	     12.33557519	     -4.48212569	      0.00000000	      0.00000000	    -20.38651962	      0.01703430	     -0.19736544	      6.65213207	      1.14119158	      0.00000000	      0.00000000	    -17.22456691	     -0.80957153	      1.57348310
      2.17000000	     11.66714462	     -0.09689487	     -3.03057976	      0.46152165	      0.97384216	     -0.03202251	    -21.90058546	     -3.37227336	     -1.54418749	     12.39478681	     -4.44651813	      0.00000000	      0.00000000	    -20.33925433	      0.00274289	     -0.13870980	      6.80015596	      1.05739520	      0.00000000	      0.00000000	    -16.76997588	     -0.85563592	      1.51656192
      2.18000000	     11.64007930	     -0.09243863	     -3.02883324	      0.46211149	      0.97381211	     -0.03190880	    -21.91026235	     -3.36914311	     -1.54436890	     12.38954462	     -4.44633544	      0.00000000	      0.00000000	    -20.34755745	      0.00225017	     -0.13963024	      6.79557360	      1.05685907	      0.00000000	      0.00000000	    -16.76783716	     -0.85668505	      1.51640063
      2.19000000	     11.32569702	     -0.05696800	     -2.96381951	      0.46281068	      0.97343484	     -0.03178329	    -21.63386683	     -3.34672304	     -1.63702130	     12.41333620	     -4.41120651	      0.00000000	      0.00000000	    -20.04676168	     -0.00664727	     -0.10084339	      6.81387394	      1.03744500	      0.00000000	      0.00000000	    -16.20242286	     -0.92881823	      1.46711798
      2.20000000	     11.30282862	     -0.05155357	     -2.96314647	      0.46337024	      0.97339512	     -0.03162962	    -21.64426062	     -3.34291523	     -1.63646483	     12.40814356	     -4.41099038	      0.00000000	      0.00000000	    -20.05655410	     -0.00784965	     -0.10193129	      6.80887998	      1.03700050	      0.00000000	      0.00000000	    -16.20111746	     -0.92958920	      1.46709965
      2.21000000	     11.28000933	     -0.04636556	     -2.96113423	      0.46393385	      0.97334707	     -0.03145628	    -21.65661082	     -3.33748522	     -1.63636726	     12.40462613	     -4.40921768	      0.00000000	      0.00000000	    -20.06708017	     -0.01007108	     -0.10431903	      6.80548953	      1.03689425	      0.00000000	      0.00000000	    -16.19559189	     -0.93214882	      1.46671134
      2.22000000	     11.26825609	     -0.07482253	     -2.91608100	      0.46473389	      0.97321636	     -0.03119672	    -21.75676600	     -3.26688217	     -1.67215609	     12.50017934	     -4.32501801	      0.00000000	      0.00000000	    -20.14489485	     -0.06348744	     -0.15715365	      6.88775968	      1.04888025	      0.00000000	      0.00000000	    -15.91837072	     -1.03039837	      1.44396136
      2.23000000	     11.24841049	     -0.06787720	     -2.91649516	      0.46526086	      0.97317716	     -0.03100475	    -21.76675352	     -3.26282111	     -1.67182313	     12.49432233	     -4.32569768	      0.00000000	      0.00000000	    -20.15442038	     -0.06447462	     -0.15677955	      6.88389487	      1.04790750	      0.00000000	      0.00000000	    -15.91478832	     -1.03130879	      1.44388402
      2.24000000	     11.22992279	     -0.06112122	     -2.91576146	      0.46578928	      0.97313893	     -0.03079288	    -21.77886062	     -3.25663138	     -1.67158413	     12.48906540	     -4.32468962	      0.00000000	      0.00000000	    -20.16580172	     -0.06761753	     -0.15756323	      6.88007984	      1.04718367	      0.00000000	      0.00000000	    -15.90621139	     -1.03517805	      1.44340444
      2.25000000	     11.25228296	     -0.08595786	     -2.88599485	      0.46642919	      0.97311081	     -0.03049080	    -21.86319977	     -3.19874682	     -1.68577757	     12.50637679	     -4.27182202	      0.00000000	      0.00000000	    -20.24229658	     -0.11595189	     -0.17578403	      6.90176028	      1.05203217	      0.00000000	      0.00000000	    -15.70272399	     -1.13627066	      1.42999733
      2.26000000	     11.23357079	     -0.07722780	     -2.88684773	      0.46693724	      0.97307437	     -0.03025591	    -21.87334890	     -3.19363605	     -1.68579675	     12.50161466	     -4.27096952	      0.00000000	      0.00000000	    -20.25201580	     -0.11869797	     -0.17575860	      6.89816247	      1.05204880	      0.00000000	      0.00000000	    -15.69916306	     -1.13828923	      1.43001799
      2.27000000	     11.21694759	     -0.06917937	     -2.88683337	      0.46743581	      0.97304346	     -0.03000155	    -21.88537954	     -3.18600954	     -1.68562234	     12.49674352	     -4.26862772	      0.00000000	      0.00000000	    -20.26280745	     -0.12309344	     -0.17641853	      6.89354127	      1.05236527	      0.00000000	      0.00000000	    -15.69169293	     -1.14346274	      1.42968571
      2.28000000	     11.24964512	     -0.09535004	     -2.85376498	      0.46805379	      0.97302728	     -0.02962122	    -21.98292351	     -3.11710048	     -1.70879035	     12.51700136	     -4.18776127	      0.00000000	      0.00000000	    -20.34504815	     -0.18192125	     -0.18513783	      6.90377304	      1.08420332	      0.00000000	      0.00000000	    -15.49030189	     -1.28126571	      1.41842454
      2.29000000	     11.23252346	     -0.08693526	     -2.85404276	      0.46851850	      0.97299972	     -0.02938485	    -21.99209430	     -3.11250230	     -1.70874124	     12.51223220	     -4.18720955	      0.00000000	      0.00000000	    -20.35322591	     -0.18416509	     -0.18480112	      6.89963767	      1.08443912	      0.00000000	      0.00000000	    -15.48863930	     -1.28298756	      1.41850097
      2.30000000	     11.21785797	     -0.07872004	     -2.85247938	      0.46895007	      0.97297428	     -0.02911588	    -22.00407962	     -3.10438873	     -1.70938416	     12.50901412	     -4.18390580	      0.00000000	      0.00000000	    -20.36271293	     -0.18980571	     -0.18519203	      6.89512305	      1.08560860	      0.00000000	      0.00000000	    -15.48075282	     -1.29019987	      1.41805389
      2.31000000	     11.23047811	     -0.09991324	     -2.80636091	      0.46952516	      0.97294536	     -0.02876337	    -22.08649419	     -3.03612729	     -1.74202930	     12.54706584	     -4.11654898	      0.00000000	      0.00000000	    -20.41272307	     -0.24826920	     -0.18773095	      6.89515622	      1.11555720	      0.00000000	      0.00000000	    -15.32693290	     -1.42334433	      1.40575799
      2.32000000	     11.21429205	     -0.08880791	     -2.80692037	      0.46992068	      0.97292685	     -0.02849901	    -22.09460371	     -3.03105646	     -1.74236186	     12.54305237	     -4.11662953	      0.00000000	      0.00000000	    -20.41957662	     -0.25120084	     -0.18740337	      6.89215798	      1.11610005	      0.00000000	      0.00000000	    -15.32584218	     -1.42426874	      1.40563261
      2.33000000	     11.19823897	     -0.07826937	     -2.80590011	      0.47030825	      0.97291229	     -0.02823339	    -22.10315140	     -3.02491843	     -1.74315880	     12.54059455	     -4.11580559	      0.00000000	      0.00000000	    -20.42667932	     -0.25542354	     -0.18768904	      6.88960503	      1.11690933	      0.00000000	      0.00000000	    -15.32296630	     -1.42707812	      1.40531955
      2.34000000	     11.18212479	     -0.06819779	     -2.80291584	      0.47068074	      0.97289508	     -0.02796612	    -22.11250184	     -3.01737342	     -1.74460989	     12.53997092	     -4.11397455	      0.00000000	      0.00000000	    -20.43363694	     -0.26094509	     -0.18862547	      6.88807161	      1.11807391	      0.00000000	      0.00000000	    -15.31808965	     -1.43198345	      1.40480241
      2.35000000	     11.15106523	     -0.08652328	     -2.70361480	      0.47123995	      0.97273948	     -0.02765767	    -22.19897757	     -2.92485592	     -1.85009653	     12.66872568	     -4.04754152	      0.00000000	      0.00000000	    -20.46096581	     -0.33716445	     -0.16699851	      6.95542126	      1.15301192	      0.00000000	      0.00000000	    -15.10131954	     -1.60445736	      1.37727062
      2.36000000	     11.13698316	     -0.07366215	     -2.70195376	      0.47157161	      0.97274000	     -0.02740284	    -22.20483263	     -2.91904416	     -1.85110615	     12.66533009	     -4.04911053	      0.00000000	      0.00000000	    -20.46686826	     -0.33927917	     -0.16527814	      6.95311893	      1.15292232	      0.00000000	      0.00000000	    -15.09915802	     -1.60488392	      1.37671756
      2.37000000	     11.12268845	     -0.06269651	     -2.69722758	      0.47186883	      0.97271488	     -0.02716078	    -22.21124456	     -2.91391108	     -1.85278668	     12.66352561	     -4.04975757	      0.00000000	      0.00000000	    -20.47198999	     -0.34300906	     -0.16447542	      6.95224346	      1.15306617	      0.00000000	      0.00000000	    -15.09615940	     -1.60684443	      1.37615669
      2.38000000	     11.04917619	     -0.01368828	     -2.51837912	      0.47233457	      0.97256885	     -0.02703261	    -22.24379004	     -2.85651549	     -2.09868538	     12.78204427	     -4.07409208	      0.00000000	      0.00000000	    -20.43756899	     -0.38571580	      0.04071053	      7.02581815	      1.13114154	      0.00000000	      0.00000000	    -14.82766003	     -1.74818053	      1.31157599
      2.39000000	     11.03657209	     -0.00334725	     -2.51467146	      0.47259368	      0.97255478	     -0.02681470	    -22.24924379	     -2.85208078	     -2.09861768	     12.77859350	     -4.07469688	      0.00000000	      0.00000000	    -20.43941074	     -0.38855854	      0.04059769	      7.02460707	      1.13113384	      0.00000000	      0.00000000	    -14.82865045	     -1.74836896	      1.31115176
      2.40000000	     11.00276332	      0.01448525	     -2.43089485	      0.47283412	      0.97250839	     -0.02666700	    -22.25267305	     -2.82997329	     -2.12528799	     12.79649730	     -4.06397752	      0.00000000	      0.00000000	    -20.41620836	     -0.40755065	      0.05201427	      7.04220941	      1.13017585	      0.00000000	      0.00000000	    -14.81979377	     -1.77545925	      1.30211000
      2.41000000	     10.99278089	      0.02393810	     -2.42715611	      0.47305172	      0.97248354	     -0.02647100	    -22.25589180	     -2.82519307	     -2.12736738	     12.79503940	     -4.06363003	      0.00000000	      0.00000000	    -20.41916257	     -0.41196859	      0.05335888	      7.04038179	      1.12971194	      0.00000000	      0.00000000	    -14.81916241	     -1.77691696	      1.30143498
      2.42000000	     10.92607214	      0.06941206	     -2.21224502	      0.47329842	      0.97240230	     -0.02642250	    -22.23897493	     -2.74870470	     -2.43188732	     12.81714955	     -4.03120061	      0.00000000	      0.00000000	    -20.34246538	     -0.47293725	      0.31317307	      7.05391508	      1.10473416	      0.00000000	      0.00000000	    -14.68955934	     -1.88831534	      1.21112852
      2.43000000	     10.91724030	      0.07995208	     -2.20500501	      0.47347668	      0.97239255	     -0.02623985	    -22.24125821	     -2.74473613	     -2.43086659	     12.81434145	     -4.03178585	      0.00000000	      0.00000000	    -20.34509743	     -0.47548704	      0.31196091	      7.05325922	      1.10542636	      0.00000000	      0.00000000	    -14.69072938	     -1.88827205	      1.21022960
      2.44000000	     10.89979055	      0.09982856	     -2.11885506	      0.47362659	      0.97236700	     -0.02615565	    -22.24383959	     -2.73138080	     -2.44549853	     12.80945995	     -4.02483900	      0.00000000	      0.00000000	    -20.33243721	     -0.48763206	      0.31144277	      7.07037499	      1.10808228	      0.00000000	      0.00000000	    -14.69722799	     -1.90424394	      1.20021323
